<svg xmlns="http://www.w3.org/2000/svg" xmlns:xlink="http://www.w3.org/1999/xlink" viewBox="0 0 150 150"><defs><linearGradient id="linear-gradient" x1="17.2" y1="112" x2="71.23" y2="112" gradientUnits="userSpaceOnUse"><stop offset="0.1" stop-color="#2e3192"/><stop offset="1" stop-color="#0071bc"/></linearGradient><linearGradient id="linear-gradient-2" x1="70.68" y1="259.3" x2="124.7" y2="259.3" gradientTransform="translate(203.47 297.3) rotate(180)" gradientUnits="userSpaceOnUse"><stop offset="0.1" stop-color="#911c24"/><stop offset="1" stop-color="#ed1c24"/></linearGradient></defs><g id="Layer_1" data-name="Layer 1"><path d="M64.17,147.81l-1.7,1.69L43.72,130.75,25,112h0a26.54,26.54,0,0,1,0-37.51L43.72,93.25,62.47,112l1.7,1.71A24.12,24.12,0,0,1,64.17,147.81Z" style="fill:url(#linear-gradient)"/><path d="M65.17,36.3,63.47,38,44.72,56.75,26,75.49A26.54,26.54,0,0,0,26,113l-10.5-10.51a38.17,38.17,0,0,1,0-54L26,38,44.72,19.24,63.47.5l1.7,1.69A24.12,24.12,0,0,1,65.17,36.3Z" style="fill:#0071bc"/><path d="M85.83,2.19,87.53.5l18.75,18.75L125,38h0a26.54,26.54,0,0,1,0,37.51L106.28,56.75,87.53,38l-1.7-1.71A24.12,24.12,0,0,1,85.83,2.19Z" style="fill:url(#linear-gradient-2)"/><path d="M84.83,113.7l1.7-1.7,18.75-18.75L124,74.51A26.54,26.54,0,0,0,124,37l10.5,10.51a38.17,38.17,0,0,1,0,54L124,112l-18.75,18.76L86.53,149.5l-1.7-1.69A24.12,24.12,0,0,1,84.83,113.7Z" style="fill:#ed1c24"/></g><g id="Layer_2" data-name="Layer 2"><path d="M75,46.5v56a28,28,0,0,1-27.85-28h0A28,28,0,0,1,75,46.5Z" style="fill:#ed1c24"/><path d="M103.16,74.5h0a28,28,0,0,1-28,28H75v-56h.15A28,28,0,0,1,103.16,74.5Z" style="fill:#0071bc"/></g><g id="Layer_3" data-name="Layer 3"><text transform="translate(78.78 89.52) rotate(-0.2)" style="font-size:33px;fill:#05669b;font-family:NotoSans-SemiBold, Noto Sans;font-weight:600">B</text><text transform="translate(78.28 89.02) rotate(-0.2)" style="font-size:33px;fill:#05669b;font-family:NotoSans-SemiBold, Noto Sans;font-weight:600">B</text><text transform="translate(77.78 88.52) rotate(-0.2)" style="font-size:33px;fill:#05669b;font-family:NotoSans-SemiBold, Noto Sans;font-weight:600">B</text><text transform="translate(77.28 88.02) rotate(-0.2)" style="font-size:33px;fill:#05669b;font-family:NotoSans-SemiBold, Noto Sans;font-weight:600">B</text><text transform="translate(76.78 87.52) rotate(-0.2)" style="font-size:33px;fill:#05669b;font-family:NotoSans-SemiBold, Noto Sans;font-weight:600">B</text><text transform="translate(76.28 87.02) rotate(-0.2)" style="font-size:33px;fill:#05669b;font-family:NotoSans-SemiBold, Noto Sans;font-weight:600">B</text><text transform="translate(55.82 89.75)" style="font-size:37px;fill:#d80720;font-family:Calibri-Bold, Calibri;font-weight:700">1</text><text transform="translate(55.32 89.25)" style="font-size:37px;fill:#d80720;font-family:Calibri-Bold, Calibri;font-weight:700">1</text><text transform="translate(54.82 88.75)" style="font-size:37px;fill:#d80720;font-family:Calibri-Bold, Calibri;font-weight:700">1</text><text transform="translate(54.32 88.25)" style="font-size:37px;fill:#d80720;font-family:Calibri-Bold, Calibri;font-weight:700">1</text><text transform="translate(53.82 87.75)" style="font-size:37px;fill:#d80720;font-family:Calibri-Bold, Calibri;font-weight:700">1</text><text transform="translate(53.32 87.25)" style="font-size:37px;fill:#d80720;font-family:Calibri-Bold, Calibri;font-weight:700">1</text><text transform="translate(53.38 87.3)" style="font-size:37px;fill:#fff;font-family:Calibri-Bold, Calibri;font-weight:700">1</text><text transform="translate(76.15 87.17) rotate(-0.2)" style="font-size:33px;fill:#fff;font-family:NotoSans-SemiBold, Noto Sans;font-weight:600">B</text></g></svg>