<svg xmlns="http://www.w3.org/2000/svg" viewBox="0 0 56 56.17"><g id="Layer_2" data-name="Layer 2"><path d="M75,46.5v56a28,28,0,0,1-27.85-28h0A28,28,0,0,1,75,46.5Z" transform="translate(-47.16 -46.5)" style="fill:#ed1c24"/><path d="M103.16,74.5h0a28,28,0,0,1-28,28H75v-56h.15A28,28,0,0,1,103.16,74.5Z" transform="translate(-47.16 -46.5)" style="fill:#0071bc"/></g><g id="Layer_3" data-name="Layer 3"><text transform="translate(31.62 43.02) rotate(-0.2)" style="font-size:33px;fill:#05669b;font-family:NotoSans-SemiBold, Noto Sans;font-weight:600">B</text><text transform="translate(31.12 42.52) rotate(-0.2)" style="font-size:33px;fill:#05669b;font-family:NotoSans-SemiBold, Noto Sans;font-weight:600">B</text><text transform="translate(30.62 42.02) rotate(-0.2)" style="font-size:33px;fill:#05669b;font-family:NotoSans-SemiBold, Noto Sans;font-weight:600">B</text><text transform="translate(30.12 41.52) rotate(-0.2)" style="font-size:33px;fill:#05669b;font-family:NotoSans-SemiBold, Noto Sans;font-weight:600">B</text><text transform="translate(29.62 41.02) rotate(-0.2)" style="font-size:33px;fill:#05669b;font-family:NotoSans-SemiBold, Noto Sans;font-weight:600">B</text><text transform="translate(29.12 40.52) rotate(-0.2)" style="font-size:33px;fill:#05669b;font-family:NotoSans-SemiBold, Noto Sans;font-weight:600">B</text><text transform="translate(8.66 43.25)" style="font-size:37px;fill:#d80720;font-family:Calibri-Bold, Calibri;font-weight:700">1</text><text transform="translate(8.16 42.75)" style="font-size:37px;fill:#d80720;font-family:Calibri-Bold, Calibri;font-weight:700">1</text><text transform="translate(7.66 42.25)" style="font-size:37px;fill:#d80720;font-family:Calibri-Bold, Calibri;font-weight:700">1</text><text transform="translate(7.16 41.75)" style="font-size:37px;fill:#d80720;font-family:Calibri-Bold, Calibri;font-weight:700">1</text><text transform="translate(6.66 41.25)" style="font-size:37px;fill:#d80720;font-family:Calibri-Bold, Calibri;font-weight:700">1</text><text transform="translate(6.16 40.75)" style="font-size:37px;fill:#d80720;font-family:Calibri-Bold, Calibri;font-weight:700">1</text><text transform="translate(6.22 40.8)" style="font-size:37px;fill:#fff;font-family:Calibri-Bold, Calibri;font-weight:700">1</text><text transform="translate(28.99 40.67) rotate(-0.2)" style="font-size:33px;fill:#fff;font-family:NotoSans-SemiBold, Noto Sans;font-weight:600">B</text></g></svg>